<svg fill="none" height="41" viewBox="0 0 41 41" width="41" xmlns="http://www.w3.org/2000/svg"><g fill="#fff"><path d="m20.5 1.5375c10.455 0 18.9625 8.5075 18.9625 18.9625s-8.5075 18.9625-18.9625 18.9625-18.9625-8.5075-18.9625-18.9625 8.5075-18.9625 18.9625-18.9625zm0-1.5375c-11.32625 0-20.5 9.17375-20.5 20.5 0 11.3263 9.17375 20.5 20.5 20.5 11.3263 0 20.5-9.1737 20.5-20.5 0-11.32625-9.1737-20.5-20.5-20.5z"/><path d="m17.7831 27.0086 9.7375-5.6375c.3075-.205.5125-.5125.5125-.8712 0-.3588-.205-.7175-.5125-.8713l-9.7375-5.6375c-.3075-.205-.7175-.205-1.025 0s-.5125.5125-.5125.8713v11.275c0 .3587.205.7175.5125.8712.3075.1538.6663.205 1.025 0z"/></g></svg>